<?xml version="1.0" standalone="no"?>
<!DOCTYPE svg PUBLIC "-//W3C//DTD SVG 20010904//EN"
 "http://www.w3.org/TR/2001/REC-SVG-20010904/DTD/svg10.dtd">
<svg version="1.0" xmlns="http://www.w3.org/2000/svg"
 width="560.000000pt" height="314.000000pt" viewBox="0 0 560.000000 314.000000"
 preserveAspectRatio="xMidYMid meet">

<g transform="translate(0.000000,314.000000) scale(0.100000,-0.100000)"
fill="#000000" stroke="none">
<path d="M1133 2431 c-144 -39 -225 -98 -275 -199 -31 -62 -33 -74 -33 -167 0
-87 3 -107 27 -157 54 -116 151 -178 358 -229 69 -17 139 -40 156 -50 92 -56
51 -174 -61 -174 -73 0 -121 50 -132 136 l-6 39 -180 0 -180 0 6 -70 c14 -163
129 -303 291 -352 92 -28 285 -30 390 -5 128 32 254 116 294 198 l20 40 31
-44 c128 -187 376 -271 585 -198 49 18 83 21 202 21 l143 0 3 116 3 115 43
-65 c81 -123 191 -195 339 -221 73 -13 174 -8 236 11 15 5 17 -2 17 -58 0 -72
-20 -121 -63 -152 -35 -25 -129 -29 -171 -6 -35 18 -66 78 -66 125 l0 35 -166
0 -167 0 6 -63 c21 -227 192 -378 447 -394 105 -7 178 8 269 53 123 62 214
185 240 329 6 32 11 144 11 249 l0 191 31 -55 c87 -159 267 -260 465 -260 160
0 292 52 408 160 l60 58 -47 57 c-26 32 -61 74 -78 92 l-29 34 -53 -46 c-94
-83 -218 -120 -271 -82 -17 12 2 31 205 207 123 106 235 203 248 216 l24 23
-31 48 c-80 125 -216 201 -389 218 -209 21 -418 -83 -512 -255 l-31 -55 0 122
0 122 -142 3 c-121 3 -152 7 -203 27 -74 29 -192 38 -267 21 -131 -31 -276
-135 -339 -245 l-29 -50 0 122 0 122 -142 3 c-120 3 -153 7 -203 27 -164 63
-365 22 -504 -104 -60 -55 -126 -150 -136 -195 -4 -17 -8 -30 -11 -30 -2 0
-20 18 -40 40 -50 55 -135 94 -272 125 -157 36 -197 51 -227 86 -34 41 -33 83
4 120 24 23 38 29 74 29 74 0 127 -58 127 -140 l0 -40 170 0 170 0 0 58 c0
161 -99 298 -255 353 -89 31 -293 36 -392 10z m3174 -572 c24 -12 43 -25 41
-29 -4 -12 -258 -230 -268 -230 -9 0 -26 42 -35 87 -8 38 20 107 56 139 64 57
133 68 206 33z m-1989 -15 c74 -31 132 -111 132 -184 0 -113 -125 -219 -226
-191 -154 43 -196 250 -70 346 59 45 106 53 164 29z m1008 -19 c46 -27 87 -86
99 -141 10 -53 -14 -122 -59 -169 -78 -81 -174 -81 -252 -1 -46 49 -70 116
-59 167 29 137 162 208 271 144z"/>
<path d="M4696 2139 c-52 -41 -21 -119 47 -119 41 0 67 26 67 66 0 35 -8 47
-37 63 -31 16 -47 14 -77 -10z m88 -21 c21 -30 20 -44 -4 -68 -24 -24 -53 -26
-74 -4 -19 18 -21 65 -4 82 20 20 65 14 82 -10z"/>
<path d="M4710 2085 c0 -19 5 -35 10 -35 6 0 10 7 10 15 0 20 10 19 25 -2 11
-15 13 -13 13 20 0 34 -2 37 -29 37 -26 0 -29 -3 -29 -35z m40 15 c0 -5 -4
-10 -10 -10 -5 0 -10 5 -10 10 0 6 5 10 10 10 6 0 10 -4 10 -10z"/>
</g>
</svg>
